# xmcd
# Copyright (C) 1995-1998 Ti Kan
#
# Track frame offsets:
#       150
#       23475
#       69982
#       95737
#       119442
#       142597
#       159350
#       183852
#       218912
#       243942
#       268075
#       291610
#
# Disc length: 4215 seconds
#
# Revision: 0
# Processed by: cddbd v1.5.2PL0 Copyright (c) Steve Scherf et al.
# Submitted via: CD-Import v1.0
#
DISCID=a710750c
DTITLE=Various Artist - This Is... Trip Hop
DYEAR=1996
DGENRE=
TTITLE0=Massive Attack Feat. Dj Shadow - Karma Coma (U.n.k.l.e. Situation Remix)
TTITLE1=Howie B - Birth
TTITLE2=Junkwaffel - Midskipper (Portishead So-So Remix)
TTITLE3=Maad - Anxiety
TTITLE4=Scanner - Mass Observation 95 (Optic Code Remix)
TTITLE5=Pusher - Under The Influence
TTITLE6=St. Etienne - Filthy
TTITLE7=Yogi - Early Lady
TTITLE8=Solo - Thirst
TTITLE9=The Assassin - Source
TTITLE10=Bubbles - Reverb Disaster
TTITLE11=Perpetual Motion - Mellow Madness
EXTD=
EXTT0=
EXTT1=
EXTT2=
EXTT3=
EXTT4=
EXTT5=
EXTT6=
EXTT7=
EXTT8=
EXTT9=
EXTT10=
EXTT11=
PLAYORDER=
